<?xml version="1.0" encoding="UTF-8"?>
<svg width="512" height="512" viewBox="0 0 512 512" xmlns="http://www.w3.org/2000/svg">
  <defs>
    <linearGradient id="grad" x1="0%" y1="0%" x2="100%" y2="100%">
      <stop offset="0%" style="stop-color:#1a365d;stop-opacity:1" />
      <stop offset="100%" style="stop-color:#2563eb;stop-opacity:1" />
    </linearGradient>
  </defs>
  <rect width="512" height="512" rx="128" fill="url(#grad)"/>
  <g transform="translate(128,128) scale(1)">
    <path d="M128 32h128c35.35 0 64 28.65 64 64v320c0 35.35-28.65 64-64 64H128c-35.35 0-64-28.65-64-64V96c0-35.35 28.65-64 64-64z" fill="none" stroke="#fff" stroke-width="32" stroke-linejoin="round"/>
    <path d="M176 128h32c8.84 0 16 7.16 16 16v32c0 8.84-7.16 16-16 16h-32c-8.84 0-16-7.16-16-16v-32c0-8.84 7.16-16 16-16z" fill="#fff"/>
    <path d="M176 320h32c8.84 0 16 7.16 16 16v32c0 8.84-7.16 16-16 16h-32c-8.84 0-16-7.16-16-16v-32c0-8.84 7.16-16 16-16z" fill="#fff"/>
    <path d="M176 224h32c8.84 0 16 7.16 16 16v32c0 8.84-7.16 16-16 16h-32c-8.84 0-16-7.16-16-16v-32c0-8.84 7.16-16 16-16z" fill="#fff"/>
  </g>
</svg>